<?xml version="1.0" encoding="UTF-8" standalone="no" ?>
<!DOCTYPE svg PUBLIC "-//W3C//DTD SVG 1.1//EN" "http://www.w3.org/Graphics/SVG/1.1/DTD/svg11.dtd">
<svg xmlns="http://www.w3.org/2000/svg" xmlns:xlink="http://www.w3.org/1999/xlink" version="1.1" width="1000" height="1000" viewBox="0 0 640 640" xml:space="preserve">
<desc>Created with Fabric.js 4.6.0</desc>
<defs>
</defs>
<g transform="matrix(1 0 0 1 231.14 214.7)" id="usrmE8vgZ_urzvzix5ycQ"  >
<path style="stroke: rgb(0,0,0); stroke-width: 1; stroke-dasharray: none; stroke-linecap: round; stroke-dashoffset: 0; stroke-linejoin: round; stroke-miterlimit: 10; fill: none; fill-rule: nonzero; opacity: 1;" vector-effect="non-scaling-stroke"  transform=" translate(-231.14, -214.7)" d="M 231.1413550087874 214.70313968465595 L 231.1433550087874 214.70313968465595" stroke-linecap="round" />
</g>
<g transform="matrix(0.17 0 0 1 296.38 179.4)" id="uYwmp8H8bv_yaeqfbaKn_"  >
<path style="stroke: rgb(2,69,131); stroke-width: 4; stroke-dasharray: none; stroke-linecap: butt; stroke-dashoffset: 0; stroke-linejoin: miter; stroke-miterlimit: 4; fill: rgb(255,255,255); fill-rule: nonzero; opacity: 1;" vector-effect="non-scaling-stroke"  transform=" translate(0, 0)" d="M -59.05097 -59.05097 L 59.05097 -59.05097 L 59.05097 59.05097 L -59.05097 59.05097 z" stroke-linecap="round" />
</g>
<g transform="matrix(0.17 0 0 1 317.37 143.94)" id="li3JLsQgtElKEXWl-BgQL"  >
<path style="stroke: rgb(2,69,131); stroke-width: 4; stroke-dasharray: none; stroke-linecap: butt; stroke-dashoffset: 0; stroke-linejoin: miter; stroke-miterlimit: 4; fill: rgb(255,255,255); fill-rule: nonzero; opacity: 1;" vector-effect="non-scaling-stroke"  transform=" translate(0, 0)" d="M -59.05097 -59.05097 L 59.05097 -59.05097 L 59.05097 59.05097 L -59.05097 59.05097 z" stroke-linecap="round" />
</g>
<g transform="matrix(0.17 0 0 1 338.81 179.4)" id="vFB1r2rgTyhL8dbbUgOm1"  >
<path style="stroke: rgb(2,69,131); stroke-width: 4; stroke-dasharray: none; stroke-linecap: butt; stroke-dashoffset: 0; stroke-linejoin: miter; stroke-miterlimit: 4; fill: rgb(255,255,255); fill-rule: nonzero; opacity: 1;" vector-effect="non-scaling-stroke"  transform=" translate(0, 0)" d="M -59.05097 -59.05097 L 59.05097 -59.05097 L 59.05097 59.05097 L -59.05097 59.05097 z" stroke-linecap="round" />
</g>
<g transform="matrix(0.17 0 0 1 359.27 143.94)" id="srshRjPvVcTHpU8KmkMGJ"  >
<path style="stroke: rgb(2,69,131); stroke-width: 4; stroke-dasharray: none; stroke-linecap: butt; stroke-dashoffset: 0; stroke-linejoin: miter; stroke-miterlimit: 4; fill: rgb(255,255,255); fill-rule: nonzero; opacity: 1;" vector-effect="non-scaling-stroke"  transform=" translate(0, 0)" d="M -59.05097 -59.05097 L 59.05097 -59.05097 L 59.05097 59.05097 L -59.05097 59.05097 z" stroke-linecap="round" />
</g>
</svg>